<?xml version="1.0" encoding="UTF-8" standalone="no"?>
<!-- Created with Inkscape (http://www.inkscape.org/) -->

<svg
   xmlns:dc="http://purl.org/dc/elements/1.1/"
   xmlns:cc="http://creativecommons.org/ns#"
   xmlns:rdf="http://www.w3.org/1999/02/22-rdf-syntax-ns#"
   xmlns:svg="http://www.w3.org/2000/svg"
   xmlns="http://www.w3.org/2000/svg"
   xmlns:sodipodi="http://sodipodi.sourceforge.net/DTD/sodipodi-0.dtd"
   xmlns:inkscape="http://www.inkscape.org/namespaces/inkscape"
   version="1.1"
   id="svg1628"
   xml:space="preserve"
   width="800"
   height="800"
   viewBox="0 0 800 800"
   sodipodi:docname="zigzag-colored-stripes-svg.svg"
   inkscape:version="0.92.4 (5da689c313, 2019-01-14)"><metadata
     id="metadata1634"><rdf:RDF><cc:Work
         rdf:about=""><dc:format>image/svg+xml</dc:format><dc:type
           rdf:resource="http://purl.org/dc/dcmitype/StillImage" /><dc:title></dc:title></cc:Work></rdf:RDF></metadata><defs
     id="defs1632"><clipPath
       clipPathUnits="userSpaceOnUse"
       id="clipPath1644"><path
         d="M 0,600 H 600 V 0 H 0 Z"
         id="path1642"
         inkscape:connector-curvature="0" /></clipPath></defs><sodipodi:namedview
     pagecolor="#ffffff"
     bordercolor="#666666"
     borderopacity="1"
     objecttolerance="10"
     gridtolerance="10"
     guidetolerance="10"
     inkscape:pageopacity="0"
     inkscape:pageshadow="2"
     inkscape:window-width="1920"
     inkscape:window-height="1018"
     id="namedview1630"
     showgrid="false"
     inkscape:zoom="0.81848039"
     inkscape:cx="501.69492"
     inkscape:cy="369.49153"
     inkscape:window-x="-8"
     inkscape:window-y="-8"
     inkscape:window-maximized="1"
     inkscape:current-layer="g1636" /><g
     id="g1636"
     inkscape:groupmode="layer"
     inkscape:label="abstract-883-publicdomainvectors.org"
     transform="matrix(1.3333333,0,0,-1.3333333,0,800)"><g
       id="g1638"><g
         id="g1640"
         clip-path="url(#clipPath1644)"><path
           d="m -0.114,281.208 c 0.002,-0.012 0.004,-0.019 0.004,-0.019 l 1.497,5.072 0.859,-3.746 1.689,5.479 1.017,-3.958 1.922,5.959 1.214,-4.194 2.213,6.526 1.471,-4.457 2.577,7.211 1.802,-4.749 3.052,8.053 2.246,-5.072 3.683,9.106 2.861,-5.429 4.545,10.469 3.733,-5.814 5.778,12.285 5.028,-6.208 7.631,14.822 7.086,-6.549 10.602,18.583 10.597,-6.662 15.845,24.656 17.338,-5.998 26.5,35.829 32.829,-2.471 54.017,61.566 82.451,15.165 c 0,0 111.789,102.761 154.83,142.327 h 52.402 c -23.667,-8.949 -37.973,-14.359 -37.973,-14.359 l -170.758,-148.023 -82.113,-10.242 -53.78,-58.597 -32.682,4.481 -26.387,-34.402 -17.256,7.088 -15.778,-23.821 -10.549,7.343 -10.56,-18.036 -7.05,7.016 -7.597,-14.435 -5.004,6.546 -5.76,-11.998 -3.709,6.072 -4.532,-10.248 -2.845,5.631 -3.669,-8.931 -2.237,5.236 -3.041,-7.909 -1.796,4.882 -2.569,-7.095 -1.465,4.57 -2.201,-6.426 -1.211,4.29 -1.914,-5.873 -1.011,4.042 -1.683,-5.405 -0.854,3.818 c 0,0 -0.952,-3.196 -1.335,-4.481 z"
           style="fill:#ee563f;fill-opacity:1;fill-rule:nonzero;stroke:none"
           id="path1646"
           inkscape:connector-curvature="0" /><path
           d="m -0.114,277.049 c 0.436,1.436 1.03,3.393 1.03,3.393 l 0.844,-3.949 1.673,5.267 0.996,-4.191 1.902,5.714 1.195,-4.463 2.187,6.239 1.446,-4.774 2.552,6.87 1.771,-5.126 3.018,7.641 2.21,-5.533 3.643,8.603 2.813,-5.999 4.496,9.834 3.673,-6.538 5.713,11.464 4.952,-7.162 7.541,13.716 6.976,-7.862 10.474,17.019 10.448,-8.579 15.661,22.28 17.102,-9.067 26.192,31.785 32.398,-8.153 53.378,53.166 81.489,1.229 169.595,130.523 c 0,0 52.882,14.195 122.793,32.96 V 527.498 C 528.794,512.217 475.102,500.701 475.102,500.701 L 306.135,379.767 225.033,383.5 171.87,333.3 139.625,343.47 113.54,313.112 96.527,323.271 80.931,301.825 l -10.4,9.265 -10.439,-16.478 -6.945,8.328 -7.514,-13.331 -4.927,7.501 -5.693,-11.177 -3.653,6.797 -4.479,-9.61 -2.798,6.199 -3.629,-8.424 -2.198,5.694 -3.007,-7.496 -1.762,5.26 -2.541,-6.749 -1.436,4.884 -2.182,-6.135 -1.188,4.557 -1.895,-5.624 -0.992,4.271 -1.666,-5.193 -0.837,4.019 c 0,0 -0.458,-1.495 -0.864,-2.82 z"
           style="fill:#f19d26;fill-opacity:1;fill-rule:nonzero;stroke:none"
           id="path1648"
           inkscape:connector-curvature="0" /><path
           d="m -0.114,260.649 c 0.201,-1.153 0.405,-2.322 0.405,-2.322 l 1.62,4.625 0.943,-4.889 1.843,4.967 1.129,-5.276 2.119,5.369 1.368,-5.727 2.469,5.837 1.682,-6.268 2.921,6.401 2.099,-6.918 3.52,7.078 2.678,-7.718 4.343,7.92 3.498,-8.731 5.519,8.988 4.728,-10.047 7.283,10.392 6.671,-11.832 10.113,12.314 10,-14.391 15.106,15.109 16.395,-18.364 25.272,19.558 31.114,-25.382 51.526,27.751 78.498,-41.18 164.151,48.133 c 0,0 62.702,-15.599 141.148,-35.114 v -38.939 c -79.87,24.553 -143.374,44.074 -143.374,44.074 l -163.489,-38.381 -78.099,46.175 -51.301,-24.757 -30.962,27.411 -25.157,-18.12 -16.31,19.459 -15.043,-14.271 -9.944,15.076 -10.072,-11.763 -6.633,12.301 -7.253,-10.002 -4.705,10.389 -5.499,-8.699 -3.48,8.988 -4.329,-7.694 -2.661,7.92 -3.509,-6.901 -2.088,7.081 -2.909,-6.253 -1.673,6.401 -2.459,-5.718 -1.36,5.842 -2.111,-5.267 -1.122,5.371 -1.836,-4.881 -0.938,4.97 -1.614,-4.548 c 0,0 -0.101,0.594 -0.231,1.357 z"
           style="fill:#4c9bdb;fill-opacity:1;fill-rule:nonzero;stroke:none"
           id="path1650"
           inkscape:connector-curvature="0" /><path
           d="m -0.114,250.723 c 0.455,1.234 1.327,3.595 1.327,3.595 l 0.917,-5.208 1.814,4.626 1.101,-5.647 2.087,4.969 1.334,-6.167 2.43,5.363 1.642,-6.79 2.875,5.829 2.048,-7.556 3.465,6.379 2.613,-8.508 4.275,7.039 3.418,-9.735 5.431,7.85 4.622,-11.372 7.163,8.86 6.528,-13.656 9.943,10.146 9.794,-17.064 14.851,11.807 16.067,-22.643 24.846,13.923 30.52,-33.322 50.667,16.016 77.11,-60.789 161.614,9.9 c 0,0 67.022,-33.265 149.659,-74.282 v 40.061 c -81.241,35.41 -147.533,64.304 -147.533,64.304 l -162.251,-19.695 -77.418,55.756 -50.883,-19.021 -30.672,31.291 -24.948,-15.368 -16.15,21.551 -14.918,-12.656 -9.845,16.382 -9.987,-10.703 -6.564,13.194 -7.196,-9.255 -4.652,11.037 -5.455,-8.143 -3.442,9.481 -4.294,-7.267 -2.631,8.308 -3.481,-6.557 -2.063,7.391 -2.889,-5.974 -1.65,6.659 -2.441,-5.488 -1.343,6.056 -2.096,-5.07 -1.107,5.552 -1.823,-4.715 -0.924,5.127 c 0,0 -1.158,-3.179 -1.505,-4.134 z"
           style="fill:#3454ad;fill-opacity:1;fill-rule:nonzero;stroke:none"
           id="path1652"
           inkscape:connector-curvature="0" /><path
           d="m -0.114,268.491 c 0.052,0.164 0.084,0.261 0.084,0.261 l 0.813,-4.351 1.637,4.836 0.96,-4.652 1.863,5.217 1.152,-5.004 2.141,5.661 1.395,-5.411 2.496,6.183 1.712,-5.884 2.952,6.815 2.139,-6.455 3.561,7.588 2.721,-7.144 4.396,8.562 3.556,-7.999 5.582,9.818 4.805,-9.082 7.364,11.504 6.775,-10.503 10.236,13.889 10.15,-12.445 15.289,17.508 16.631,-15.249 25.583,23.655 31.56,-19.609 52.146,36.272 79.483,-26.951 165.973,75.815 c 0,0 59.345,-4.214 135.006,-9.586 v -37.866 c -77.056,9.864 -137.207,17.563 -137.207,17.563 l -165.319,-66.118 -79.11,31.936 -51.925,-33.285 -31.394,21.632 -25.463,-22.217 -16.546,16.342 -15.228,-16.671 -10.096,13.131 -10.191,-13.339 -6.739,10.971 -7.342,-11.116 -4.779,9.422 -5.564,-9.53 -3.539,8.256 -4.378,-8.337 -2.706,7.345 -3.548,-7.408 -2.124,6.615 -2.946,-6.668 -1.701,6.021 -2.486,-6.066 -1.384,5.522 -2.135,-5.557 -1.143,5.1 -1.859,-5.131 -0.952,4.737 -1.634,-4.762 c 0,0 -0.517,2.837 -0.723,3.966 z"
           style="fill:#a5d42b;fill-opacity:1;fill-rule:nonzero;stroke:none"
           id="path1654"
           inkscape:connector-curvature="0" /><path
           d="m -0.114,245.894 c 0.404,1.053 0.819,2.133 0.819,2.133 l 0.899,-5.444 1.794,4.379 1.077,-5.922 2.065,4.679 1.308,-6.489 2.403,5.02 1.61,-7.173 2.839,5.412 2.015,-8.016 3.422,5.867 2.57,-9.084 4.223,6.396 3.362,-10.468 5.362,7.018 4.546,-12.338 7.071,7.744 6.423,-14.989 9.821,8.564 9.64,-19.01 14.663,9.399 15.827,-25.766 24.536,9.8 30.098,-39.129 50.035,7.435 L 284.383,90.78 444.13,72.644 c 0,0 45.298,-31.104 107.187,-73.599 h 48.73 v 7.8 c -83.904,52.381 -153.766,95.996 -153.766,95.996 l -160.386,8.28 -76.409,70.082 -50.255,-10.451 -30.239,37.087 -24.633,-11.254 -15.907,24.671 -14.732,-10.246 -9.693,18.328 -9.863,-9.122 -6.463,14.523 -7.106,-8.135 -4.577,12.002 -5.386,-7.312 -3.386,10.218 -4.241,-6.626 -2.586,8.884 -3.439,-6.047 -2.026,7.854 -2.855,-5.556 -1.621,7.037 -2.413,-5.139 -1.318,6.374 -2.07,-4.779 -1.087,5.826 -1.803,-4.466 -0.903,5.361 c 0,0 -0.547,-1.441 -0.998,-2.633 z"
           style="fill:#873888;fill-opacity:1;fill-rule:nonzero;stroke:none"
           id="path1656"
           inkscape:connector-curvature="0" /><path
           d="m -0.114,272.834 c 0.3,0.961 0.558,1.788 0.558,1.788 l 0.828,-4.147 1.655,5.052 0.979,-4.421 1.883,5.464 1.173,-4.731 2.165,5.95 1.419,-5.089 2.525,6.529 1.741,-5.506 2.986,7.229 2.173,-5.989 3.603,8.096 2.767,-6.568 4.446,9.199 3.612,-7.263 5.649,10.644 4.881,-8.118 7.452,12.615 6.873,-9.175 10.357,15.462 10.297,-10.504 15.472,19.905 16.867,-12.144 25.883,27.74 31.98,-13.849 52.759,44.762 80.5,-12.771 167.796,103.354 c 0,0 56.068,5.707 128.882,13.119 V 422.631 C 525.876,419.195 469.005,416.56 469.005,416.56 L 301.851,322.85 221.738,340.597 169.192,298.808 137.371,314.68 111.596,288.368 94.81,301.604 79.4,282.535 69.153,293.722 58.838,278.808 l -6.844,9.642 -7.429,-12.228 -4.856,8.456 -5.627,-10.359 -3.596,7.526 -4.429,-8.977 -2.75,6.77 -3.59,-7.922 -2.162,6.155 -2.974,-7.084 -1.734,5.637 -2.514,-6.406 -1.411,5.201 -2.158,-5.848 -1.165,4.827 -1.875,-5.38 -0.974,4.504 -1.649,-4.978 -0.823,4.218 c 0,0 -0.169,-0.537 -0.392,-1.244 z"
           style="fill:#f7d316;fill-opacity:1;fill-rule:nonzero;stroke:none"
           id="path1658"
           inkscape:connector-curvature="0" /><path
           d="m -0.114,240.962 c 0.182,0.454 0.309,0.771 0.309,0.771 l 0.88,-5.676 1.774,4.128 1.055,-6.191 2.041,4.387 1.283,-6.81 2.375,4.676 1.577,-7.555 2.81,4.995 1.974,-8.482 3.385,5.358 2.522,-9.661 4.173,5.756 3.302,-11.205 5.296,6.188 4.47,-13.305 6.981,6.629 6.318,-16.32 9.693,6.982 9.484,-20.96 14.476,6.984 15.584,-28.889 24.212,5.676 29.653,-44.933 49.399,-1.172 75.059,-89.534 c 0,0 68.28,-20.035 115.033,-33.754 h 66.654 c -13.697,11.21 -21.614,17.69 -21.614,17.69 l -158.528,36.42 -75.386,84.46 -49.625,-1.854 -29.803,42.897 -24.321,-7.132 -15.672,27.799 -14.541,-7.836 -9.542,20.283 -9.741,-7.539 -6.357,15.859 -7.022,-7.02 -4.499,12.97 -5.321,-6.48 -3.324,10.948 -4.191,-5.981 -2.539,9.459 -3.399,-5.536 -1.989,8.321 -2.823,-5.142 -1.587,7.423 -2.386,-4.797 -1.292,6.696 -2.049,-4.487 -1.065,6.096 -1.781,-4.215 -0.889,5.595 c 0,0 -0.215,-0.546 -0.486,-1.234 z"
           style="fill:#e72c85;fill-opacity:1;fill-rule:nonzero;stroke:none"
           id="path1660"
           inkscape:connector-curvature="0" /></g></g></g></svg>